<svg height="512" viewBox="0 0 64 64" width="512" xmlns="http://www.w3.org/2000/svg"><g id="Search-research-samrtphones-digital_marketing-shopping" data-name="Search-research-samrtphones-digital marketing-shopping"><path d="m45 19a13 13 0 1 0 -13 13 13.015 13.015 0 0 0 13-13zm-24 0a11 11 0 1 1 11 11 11.013 11.013 0 0 1 -11-11z"/><path d="m32 10a9.01 9.01 0 0 0 -9 9h2a7.009 7.009 0 0 1 7-7z"/><path d="m48.95 18a16.978 16.978 0 0 0 -33.9 0h-1.05v2h1.05a17.012 17.012 0 0 0 13.95 15.72v2.28h-1a1 1 0 0 0 -1 1v18a5 5 0 0 0 10 0v-18a1 1 0 0 0 -1-1h-1v-2.28a17.012 17.012 0 0 0 13.95-15.72h1.05v-2zm-13.95 39a3 3 0 0 1 -6 0v-17h6zm-4-19v-2.05c.33.02.66.05 1 .05s.67-.03 1-.05v2.05zm1-4a15 15 0 1 1 15-15 15.018 15.018 0 0 1 -15 15z"/><path d="m31 42h2v2h-2z"/><path d="m31 46h2v12h-2z"/><path d="m17 34h-12a3 3 0 0 0 -3 3v22a3 3 0 0 0 3 3h12a3 3 0 0 0 3-3v-22a3 3 0 0 0 -3-3zm1 25a1 1 0 0 1 -1 1h-12a1 1 0 0 1 -1-1v-22a1 1 0 0 1 1-1h12a1 1 0 0 1 1 1z"/><path d="m6 56h6v2h-6z"/><path d="m14 56h2v2h-2z"/><path d="m59 34h-12a3 3 0 0 0 -3 3v22a3 3 0 0 0 3 3h12a3 3 0 0 0 3-3v-22a3 3 0 0 0 -3-3zm1 25a1 1 0 0 1 -1 1h-12a1 1 0 0 1 -1-1v-22a1 1 0 0 1 1-1h12a1 1 0 0 1 1 1z"/><path d="m48 56h6v2h-6z"/><path d="m56 56h2v2h-2z"/><path d="m10 30h2v2h-2z"/><path d="m10 26h2v2h-2z"/><path d="m10 22h2v2h-2z"/><path d="m10 18h2v2h-2z"/><path d="m52 30h2v2h-2z"/><path d="m52 26h2v2h-2z"/><path d="m52 22h2v2h-2z"/><path d="m52 18h2v2h-2z"/><path d="m56 2h6v2h-6z"/><path d="m56 8h6v2h-6z"/><path d="m52 2h2v2h-2z"/><path d="m52 8h2v2h-2z"/><path d="m56 14h6v2h-6z"/><path d="m52 14h2v2h-2z"/><path d="m6 2h6v2h-6z"/><path d="m6 8h6v2h-6z"/><path d="m2 2h2v2h-2z"/><path d="m2 8h2v2h-2z"/><path d="m6 14h6v2h-6z"/><path d="m2 14h2v2h-2z"/></g></svg>