<svg id="Logo" data-name="Слой 1" xmlns="http://www.w3.org/2000/svg" viewBox="0 0 200 200">
  <title>Logo</title>
  <g>
    <path d="M200,200V0H0V200ZM15,15H185V185H15Z"/>
    <path d="M109.88,93.72a2,2,0,0,0,2.38-.53l20.81-29.45a1.21,1.21,0,0,0,0-1.37,1.87,1.87,0,0,0-1.43-.69H113.49a1.82,1.82,0,0,0-1.42.61C110.54,64.19,97.24,81.16,96,84.13a9.73,9.73,0,0,0,.67,8.45c3.14,5,25.65,34.25,31.92,42.47h-15.2c-3-3.81-19-23.75-21.85-27.48-2.38-3.73-2.85-7.31-2.85-11.57V63A1.56,1.56,0,0,0,87,61.67H69.31A1.56,1.56,0,0,0,67.6,63v73.37a1.56,1.56,0,0,0,1.71,1.37H87a1.56,1.56,0,0,0,1.71-1.37V120.36c0-.76-.76-1.29-1.71-1.29s-1.71.53-1.71,1.29V135H71V64.41H85.27V96c0,4,.38,8.45,3.33,12.94,3.23,4.26,21.76,27.25,22.52,28.24a1.82,1.82,0,0,0,1.43.61h19.1a1.66,1.66,0,0,0,1.43-.68,1.21,1.21,0,0,0,0-1.37c-.29-.38-29.83-38.74-33.35-44.37A7.38,7.38,0,0,1,99.24,85c.76-1.9,9.31-13.09,15.2-20.55h14.25l-19.48,27.4A1.25,1.25,0,0,0,109.88,93.72Z"/>
  </g>
</svg>
