<svg id="Слой_1" data-name="Слой 1" xmlns="http://www.w3.org/2000/svg" viewBox="0 0 500.53 200">
  <title>Монтажная область 1</title>
  <path d="M.44,199.73H500.53V-.27H.44Zm15-185H485.53v170H15.44Z"/>
  <g>
    <path d="M130.91,93.33a2.13,2.13,0,0,0,2.5-.54l21.9-29.69a1.17,1.17,0,0,0,0-1.38,2,2,0,0,0-1.5-.69h-19.1a2,2,0,0,0-1.5.61c-1.6,1.92-15.6,19-16.9,22a9.44,9.44,0,0,0,.7,8.52c3.3,5.06,27,34.52,33.6,42.8h-16c-3.2-3.83-20-23.93-23-27.69-2.5-3.76-3-7.36-3-11.66V62.41a1.63,1.63,0,0,0-1.8-1.38H88.21a1.63,1.63,0,0,0-1.8,1.38v73.95a1.63,1.63,0,0,0,1.8,1.38h18.6a1.63,1.63,0,0,0,1.8-1.38V120.17c0-.77-.8-1.3-1.8-1.3s-1.8.54-1.8,1.3V135H90V63.79h15V95.63c0,4.07.4,8.51,3.5,13,3.4,4.29,22.9,27.46,23.7,28.46a2,2,0,0,0,1.5.61h20.1a1.77,1.77,0,0,0,1.5-.69,1.17,1.17,0,0,0,0-1.38c-.3-.38-31.4-39-35.1-44.72a7.16,7.16,0,0,1-.5-6.44c.8-1.92,9.8-13.19,16-20.71h15l-20.5,27.62A1.24,1.24,0,0,0,130.91,93.33Z"/>
    <path d="M219.71,76.76a1.63,1.63,0,0,0,1.8-1.38v-13a1.63,1.63,0,0,0-1.8-1.38h-47a1.63,1.63,0,0,0-1.8,1.38V99.08c0,.77.8,1.3,1.8,1.3s1.8-.54,1.8-1.3V63.79h43.4V74h-26.6a1.63,1.63,0,0,0-1.8,1.38V92.56a1.63,1.63,0,0,0,1.8,1.38h20v9.59h-29.6c-6,.15-10.8,3.83-10.8,8.36v24.47a1.63,1.63,0,0,0,1.8,1.38h47a1.63,1.63,0,0,0,1.8-1.38v-13a1.63,1.63,0,0,0-1.8-1.38h-26.6v-8.13a1.86,1.86,0,0,0-3.6,0v9.51a1.63,1.63,0,0,0,1.8,1.38h26.6V135h-43.4V112c0-3.14,3.4-5.75,7.6-5.75H213c1,0,1.8-.54,1.8-1.3V92.56a1.63,1.63,0,0,0-1.8-1.38h-19.9V76.76Z"/>
    <path d="M238.71,135a1.43,1.43,0,1,0,0,2.76h40.9a1.63,1.63,0,0,0,1.8-1.38V122.71a1.63,1.63,0,0,0-1.8-1.38h-33.2c-3.6,0-5.9-.38-5.9-5.14V63.79h14.7l.1,50a1.86,1.86,0,0,0,3.6,0l-.1-51.39A1.63,1.63,0,0,0,257,61h-18.3a1.63,1.63,0,0,0-1.8,1.38v53.77c0,7,5.1,7.9,9.5,7.9h31.4V135Z"/>
    <path d="M315.21,63.79l.1,50a1.86,1.86,0,0,0,3.6,0l-.1-51.39A1.63,1.63,0,0,0,317,61h-18.3a1.63,1.63,0,0,0-1.8,1.38v53.77c0,7,5.1,7.9,9.5,7.9h31.4V135h-39.1a1.43,1.43,0,1,0,0,2.76h40.9a1.63,1.63,0,0,0,1.8-1.38V122.71a1.63,1.63,0,0,0-1.8-1.38h-33.2c-3.6,0-5.9-.38-5.9-5.14V63.79Z"/>
    <path d="M394.91,94.78a2.74,2.74,0,0,1-2.8-1.61c-3-6.67-14-31.22-14-31.22a1.77,1.77,0,0,0-1.7-.92h-17.7a1.91,1.91,0,0,0-1.5.54,1.14,1.14,0,0,0-.2,1.23l17.9,42v31.53a1.63,1.63,0,0,0,1.8,1.38h18.6a1.63,1.63,0,0,0,1.8-1.38V105.29c0-.77-.8-1.3-1.8-1.3s-1.8.54-1.8,1.3V135h-15V104.6c0-.15-.1-.31-.1-.46l-17.3-40.35h14c2.1,4.53,11,24.39,13.6,30.3a6.55,6.55,0,0,0,6.2,3.53c3,0,5.8-1.46,6.7-3.45,2.1-4.76,13.3-31.14,13.4-31.37a1.13,1.13,0,0,0-.2-1.23,1.91,1.91,0,0,0-1.5-.54h-17.7a1.9,1.9,0,0,0-1.8,1.07l-4.4,13.58a1.38,1.38,0,0,0,1.3,1.69c1,.15,2-.23,2.2-1L397,63.79h13.8c-2.6,6.06-10.8,25.39-12.6,29.46C397.81,94.17,396.41,94.78,394.91,94.78Z"/>
  </g>
</svg>
