<svg id="Слой_1" data-name="Слой 1" xmlns="http://www.w3.org/2000/svg" viewBox="0 0 400 400">
  <title>Монтажная область 1</title>
  <g>
    <path d="M400,400V0H0V400ZM30,30H370V370H30Z"/>
    <path d="M219.76,187.43a3.94,3.94,0,0,0,4.75-1.07l41.61-58.91a2.42,2.42,0,0,0,0-2.74,3.75,3.75,0,0,0-2.85-1.37H227a3.63,3.63,0,0,0-2.85,1.22c-3,3.81-29.64,37.75-32.11,43.69-1.33,3.2-2.66,10.5,1.33,16.9,6.27,10,51.3,68.5,63.84,84.94h-30.4c-6.08-7.61-38-47.49-43.7-55-4.75-7.46-5.7-14.61-5.7-23.14V126.09c0-1.52-1.52-2.74-3.42-2.74H138.62c-1.9,0-3.42,1.22-3.42,2.74V272.83c0,1.52,1.52,2.74,3.42,2.74H174c1.9,0,3.42-1.22,3.42-2.74V240.71c0-1.52-1.52-2.59-3.42-2.59s-3.42,1.07-3.42,2.59v29.38H142V128.83h28.5V192c0,8.07.76,16.9,6.65,25.88,6.46,8.52,43.51,54.49,45,56.47a3.63,3.63,0,0,0,2.85,1.22h38.19a3.32,3.32,0,0,0,2.85-1.37,2.41,2.41,0,0,0,0-2.74c-.57-.76-59.67-77.48-66.7-88.75-2.85-4.41-2.09-10-.95-12.79,1.52-3.81,18.62-26.18,30.4-41.1h28.5l-39,54.8C217.48,185,218,186.67,219.76,187.43Z"/>
  </g>
</svg>
